<svg width="99" height="27" viewBox="0 0 99 27" fill="none" xmlns="http://www.w3.org/2000/svg">
<path fill-rule="evenodd" clip-rule="evenodd" d="M25.2173 10.3682H13.6719V9.2467H25.2173C25.8394 9.2467 26.3437 9.74882 26.3437 10.3682V17.3776C26.3437 17.997 25.8394 18.4991 25.2173 18.4991H22.4013V17.3776H25.2173V10.3682Z" fill="#7FB3F5" stroke="#7FB3F5"/>
<path fill-rule="evenodd" clip-rule="evenodd" d="M17.3775 25.2172L17.3775 13.6718L18.499 13.6718L18.499 25.2172C18.499 25.8392 17.9969 26.3435 17.3775 26.3435L10.3681 26.3435C9.74872 26.3435 9.24661 25.8392 9.24661 25.2172L9.24661 22.4012L10.3681 22.4012L10.3681 25.2172L17.3775 25.2172Z" fill="#7FB3F6" stroke="#7FB3F6"/>
<path fill-rule="evenodd" clip-rule="evenodd" d="M2.10856 17.3776L13.4707 17.3776L13.4707 18.4991L2.10856 18.4991C1.49635 18.4991 1.00006 17.997 1.00006 17.3776L1.00006 10.3682C1.00006 9.74885 1.49635 9.24673 2.10856 9.24673L4.87981 9.24673L4.87981 10.3682L2.10856 10.3682L2.10856 17.3776Z" fill="#0087D3" stroke="#0087D3"/>
<path fill-rule="evenodd" clip-rule="evenodd" d="M10.1672 2.10856L10.1672 13.4707L9.04565 13.4707L9.04566 2.10856C9.04566 1.49635 9.54777 1.00005 10.1672 1.00005L17.1766 1.00006C17.796 1.00006 18.2981 1.49635 18.2981 2.10856L18.2981 4.87981L17.1766 4.87981L17.1766 2.10856L10.1672 2.10856Z" fill="#0087D3" stroke="#0087D3"/>
<path d="M33.212 17V8.6C34.396 8.568 35.256 8.552 35.792 8.552C37.08 8.552 38.08 8.812 38.792 9.332C39.504 9.852 39.864 10.608 39.872 11.6C39.872 12.592 39.544 13.352 38.888 13.88C38.232 14.408 37.412 14.692 36.428 14.732C35.868 14.756 35.264 14.768 34.616 14.768V17H33.212ZM34.616 9.836V13.484C35.36 13.484 35.904 13.48 36.248 13.472C36.944 13.448 37.484 13.28 37.868 12.968C38.26 12.656 38.456 12.232 38.456 11.696C38.456 11.152 38.252 10.712 37.844 10.376C37.436 10.04 36.9 9.864 36.236 9.848C35.924 9.84 35.384 9.836 34.616 9.836ZM48.9254 17H47.5094V13.52H42.8894V17H41.4854V8.6H42.8894V12.236H47.5094V8.6H48.9254V17ZM55.4809 13.7V17H53.9569L53.9449 13.664L50.5009 8.6H52.2049L54.7249 12.38L57.2569 8.6H58.9489L55.4809 13.7ZM63.5764 8.468C64.4884 8.468 65.3924 8.68 66.2884 9.104L65.8684 10.328C65.1004 9.936 64.3364 9.74 63.5764 9.74C63.0564 9.74 62.6284 9.84 62.2924 10.04C61.9644 10.232 61.8044 10.504 61.8124 10.856C61.8124 10.968 61.8324 11.068 61.8724 11.156C61.9124 11.244 61.9764 11.324 62.0644 11.396C62.1604 11.468 62.2484 11.528 62.3284 11.576C62.4084 11.616 62.5324 11.664 62.7004 11.72C62.8684 11.768 63.0044 11.808 63.1084 11.84C63.2124 11.864 63.3764 11.904 63.6004 11.96C63.8324 12.016 64.0044 12.056 64.1164 12.08C64.5644 12.192 64.9404 12.308 65.2444 12.428C65.5484 12.54 65.8324 12.692 66.0964 12.884C66.3684 13.068 66.5724 13.296 66.7084 13.568C66.8444 13.84 66.9124 14.164 66.9124 14.54C66.9204 15.38 66.6124 16.028 65.9884 16.484C65.3644 16.932 64.5724 17.164 63.6124 17.18C62.3724 17.196 61.2084 16.88 60.1204 16.232L60.6364 15.056C61.6124 15.624 62.5684 15.9 63.5044 15.884C64.0964 15.876 64.5684 15.756 64.9204 15.524C65.2804 15.292 65.4644 14.992 65.4724 14.624C65.4724 14.52 65.4604 14.428 65.4364 14.348C65.4124 14.26 65.3684 14.184 65.3044 14.12C65.2484 14.048 65.1884 13.984 65.1244 13.928C65.0684 13.872 64.9844 13.82 64.8724 13.772C64.7604 13.716 64.6604 13.672 64.5724 13.64C64.4844 13.608 64.3644 13.572 64.2124 13.532C64.0604 13.492 63.9324 13.46 63.8284 13.436C63.7324 13.412 63.5924 13.38 63.4084 13.34C63.2244 13.292 63.0804 13.256 62.9764 13.232C62.5844 13.136 62.2484 13.036 61.9684 12.932C61.6884 12.82 61.4204 12.676 61.1644 12.5C60.9084 12.324 60.7124 12.104 60.5764 11.84C60.4484 11.576 60.3804 11.268 60.3724 10.916C60.3644 10.116 60.6724 9.508 61.2964 9.092C61.9204 8.676 62.6804 8.468 63.5764 8.468ZM70.1698 17H68.8018V8.6H70.1698V17ZM76.5227 8.456C77.8027 8.456 78.8627 8.864 79.7027 9.68C80.5507 10.488 80.9747 11.54 80.9747 12.836C80.9747 14.116 80.5627 15.172 79.7387 16.004C78.9227 16.836 77.8547 17.252 76.5347 17.252C75.2227 17.252 74.1467 16.844 73.3067 16.028C72.4747 15.204 72.0587 14.144 72.0587 12.848C72.0587 11.544 72.4787 10.488 73.3187 9.68C74.1667 8.864 75.2347 8.456 76.5227 8.456ZM78.7187 10.604C78.1587 10.02 77.4267 9.728 76.5227 9.728C75.6187 9.728 74.8867 10.016 74.3267 10.592C73.7667 11.168 73.4867 11.92 73.4867 12.848C73.4867 13.768 73.7627 14.52 74.3147 15.104C74.8747 15.68 75.6147 15.968 76.5347 15.968C77.4547 15.968 78.1867 15.676 78.7307 15.092C79.2827 14.5 79.5587 13.748 79.5587 12.836C79.5587 11.924 79.2787 11.18 78.7187 10.604ZM88.7443 9.872H84.2683V12.56H87.5203V13.808H84.2683V17H82.8643V8.6H88.7443V9.872ZM94.5512 13.7V17H93.0272L93.0152 13.664L89.5712 8.6H91.2752L93.7952 12.38L96.3272 8.6H98.0192L94.5512 13.7Z" fill="#212121"/>
</svg>
