<svg width="27" height="27" viewBox="0 0 27 27" fill="none" xmlns="http://www.w3.org/2000/svg">
<path fill-rule="evenodd" clip-rule="evenodd" d="M25.2173 10.3682H13.6719V9.2467H25.2173C25.8394 9.2467 26.3437 9.74882 26.3437 10.3682V17.3776C26.3437 17.997 25.8394 18.4991 25.2173 18.4991H22.4013V17.3776H25.2173V10.3682Z" fill="#7FB3F5" stroke="#7FB3F5"/>
<path fill-rule="evenodd" clip-rule="evenodd" d="M17.3775 25.2172L17.3775 13.6718L18.499 13.6718L18.499 25.2172C18.499 25.8392 17.9969 26.3435 17.3775 26.3435L10.3681 26.3435C9.74872 26.3435 9.24661 25.8392 9.24661 25.2172L9.24661 22.4012L10.3681 22.4012L10.3681 25.2172L17.3775 25.2172Z" fill="#7FB3F6" stroke="#7FB3F6"/>
<path fill-rule="evenodd" clip-rule="evenodd" d="M2.10856 17.3776L13.4707 17.3776L13.4707 18.4991L2.10856 18.4991C1.49635 18.4991 1.00006 17.997 1.00006 17.3776L1.00006 10.3682C1.00006 9.74885 1.49635 9.24673 2.10856 9.24673L4.87981 9.24673L4.87981 10.3682L2.10856 10.3682L2.10856 17.3776Z" fill="#0087D3" stroke="#0087D3"/>
<path fill-rule="evenodd" clip-rule="evenodd" d="M10.1672 2.10856L10.1672 13.4707L9.04565 13.4707L9.04566 2.10856C9.04566 1.49635 9.54777 1.00005 10.1672 1.00005L17.1766 1.00006C17.796 1.00006 18.2981 1.49635 18.2981 2.10856L18.2981 4.87981L17.1766 4.87981L17.1766 2.10856L10.1672 2.10856Z" fill="#0087D3" stroke="#0087D3"/>
</svg>
